<?xml version="1.0" encoding="UTF-8" standalone="no"?>
<svg xmlns="http://www.w3.org/2000/svg" xmlns:xlink="http://www.w3.org/1999/xlink" xmlns:serif="http://www.serif.com/" viewBox="0 0 653 268" version="1.1" xml:space="preserve" style="fill-rule:evenodd;clip-rule:evenodd;stroke-linejoin:round;stroke-miterlimit:2;"> <g transform="matrix(1,0,0,1,0.000399944,2.93099e-14)"> <g transform="matrix(1,0,0,1,-182.076,-358.459)"> <g id="Layer-1"> <g transform="matrix(1,0,0,1,511.727,470.691)"> <path d="M0,34.74C-1.18,35.64 -2.45,36.42 -3.81,37.08C-5.17,37.74 -6.659,38.24 -8.279,38.58C-9.899,38.919 -11.69,39.09 -13.649,39.09C-16.73,39.09 -19.57,38.529 -22.17,37.41C-24.771,36.29 -27.021,34.761 -28.92,32.82C-30.82,30.88 -32.31,28.59 -33.39,25.95C-34.47,23.31 -35.01,20.47 -35.01,17.43C-35.01,14.43 -34.479,11.61 -33.42,8.97C-32.36,6.33 -30.869,4.02 -28.949,2.04C-27.029,0.06 -24.75,-1.5 -22.109,-2.64C-19.47,-3.78 -16.55,-4.35 -13.35,-4.35C-11.43,-4.35 -9.681,-4.19 -8.1,-3.87C-6.52,-3.55 -5.069,-3.099 -3.75,-2.52C-2.43,-1.94 -1.21,-1.25 -0.09,-0.45C1.03,0.35 2.09,1.23 3.091,2.19L-1.649,7.65C-3.329,6.09 -5.11,4.83 -6.989,3.87C-8.87,2.91 -11.01,2.43 -13.409,2.43C-15.41,2.43 -17.26,2.82 -18.96,3.6C-20.66,4.38 -22.13,5.44 -23.369,6.78C-24.61,8.12 -25.57,9.69 -26.25,11.49C-26.931,13.29 -27.27,15.231 -27.27,17.31C-27.27,19.39 -26.931,21.34 -26.25,23.16C-25.57,24.981 -24.61,26.571 -23.369,27.93C-22.13,29.29 -20.66,30.36 -18.96,31.14C-17.26,31.92 -15.41,32.31 -13.409,32.31C-10.851,32.31 -8.649,31.821 -6.81,30.84C-4.97,29.86 -3.149,28.53 -1.35,26.85L3.391,31.65C2.311,32.81 1.18,33.84 0,34.74" style="fill:white;fill-rule:nonzero;"></path> </g> <g transform="matrix(1,0,0,1,545.422,497.12)"> <path d="M0,-7.74C-0.477,-8.979 -1.143,-10.07 -1.997,-11.01C-2.853,-11.949 -3.866,-12.69 -5.039,-13.23C-6.211,-13.77 -7.513,-14.04 -8.943,-14.04C-10.375,-14.04 -11.677,-13.77 -12.85,-13.23C-14.022,-12.69 -15.026,-11.96 -15.861,-11.04C-16.695,-10.119 -17.332,-9.05 -17.769,-7.83C-18.206,-6.609 -18.424,-5.3 -18.424,-3.9C-18.424,-2.499 -18.187,-1.17 -17.709,0.09C-17.232,1.35 -16.567,2.441 -15.712,3.36C-14.857,4.281 -13.844,5.01 -12.671,5.55C-11.498,6.09 -10.216,6.36 -8.824,6.36C-7.354,6.36 -6.032,6.09 -4.859,5.55C-3.687,5.01 -2.683,4.281 -1.849,3.36C-1.014,2.441 -0.377,1.371 0.06,0.15C0.496,-1.07 0.716,-2.379 0.716,-3.78C0.716,-5.179 0.477,-6.499 0,-7.74M6.746,2.52C5.885,4.521 4.706,6.27 3.206,7.77C1.706,9.27 -0.085,10.461 -2.164,11.34C-4.244,12.219 -6.505,12.66 -8.944,12.66C-11.344,12.66 -13.574,12.23 -15.634,11.37C-17.695,10.51 -19.475,9.33 -20.975,7.83C-22.475,6.33 -23.645,4.59 -24.484,2.61C-25.324,0.63 -25.744,-1.5 -25.744,-3.78C-25.744,-6.06 -25.314,-8.21 -24.454,-10.23C-23.595,-12.249 -22.414,-14.01 -20.914,-15.51C-19.414,-17.01 -17.635,-18.199 -15.574,-19.08C-13.515,-19.959 -11.265,-20.4 -8.824,-20.4C-6.385,-20.4 -4.135,-19.969 -2.074,-19.11C-0.015,-18.249 1.766,-17.07 3.266,-15.57C4.766,-14.07 5.936,-12.32 6.775,-10.32C7.616,-8.319 8.036,-6.18 8.036,-3.9C8.036,-1.62 7.605,0.52 6.746,2.52" style="fill:white;fill-rule:nonzero;"></path> </g> <g transform="matrix(1,0,0,1,0,-18.658)"> <rect x="559.638" y="505.759" width="17.76" height="7.14" style="fill:white;"></rect> </g> <g transform="matrix(1,0,0,1,619.306,470.691)"> <path d="M0,34.74C-1.18,35.64 -2.45,36.42 -3.81,37.08C-5.17,37.74 -6.659,38.24 -8.279,38.58C-9.899,38.919 -11.69,39.09 -13.649,39.09C-16.73,39.09 -19.57,38.529 -22.17,37.41C-24.771,36.29 -27.021,34.761 -28.92,32.82C-30.82,30.88 -32.31,28.59 -33.39,25.95C-34.47,23.31 -35.01,20.47 -35.01,17.43C-35.01,14.43 -34.479,11.61 -33.42,8.97C-32.36,6.33 -30.869,4.02 -28.949,2.04C-27.029,0.06 -24.75,-1.5 -22.109,-2.64C-19.47,-3.78 -16.55,-4.35 -13.35,-4.35C-11.43,-4.35 -9.681,-4.19 -8.1,-3.87C-6.52,-3.55 -5.069,-3.099 -3.75,-2.52C-2.43,-1.94 -1.21,-1.25 -0.09,-0.45C1.03,0.35 2.09,1.23 3.091,2.19L-1.649,7.65C-3.329,6.09 -5.11,4.83 -6.989,3.87C-8.87,2.91 -11.01,2.43 -13.409,2.43C-15.41,2.43 -17.26,2.82 -18.96,3.6C-20.66,4.38 -22.13,5.44 -23.369,6.78C-24.61,8.12 -25.57,9.69 -26.25,11.49C-26.931,13.29 -27.27,15.231 -27.27,17.31C-27.27,19.39 -26.931,21.34 -26.25,23.16C-25.57,24.981 -24.61,26.571 -23.369,27.93C-22.13,29.29 -20.66,30.36 -18.96,31.14C-17.26,31.92 -15.41,32.31 -13.409,32.31C-10.851,32.31 -8.649,31.821 -6.81,30.84C-4.97,29.86 -3.149,28.53 -1.35,26.85L3.391,31.65C2.311,32.81 1.18,33.84 0,34.74" style="fill:white;fill-rule:nonzero;"></path> </g> <g transform="matrix(1,0,0,1,636.916,476.661)"> <path d="M0,32.4L-7.319,32.4L-7.319,0.72L0,0.72L0,7.86C1,5.46 2.42,3.54 4.261,2.1C6.1,0.66 8.42,0 11.221,0.12L11.221,7.8L10.801,7.8C9.2,7.8 7.74,8.061 6.42,8.58C5.101,9.1 3.96,9.88 3,10.92C2.04,11.961 1.3,13.27 0.78,14.85C0.26,16.431 0,18.261 0,20.34L0,32.4Z" style="fill:white;fill-rule:nonzero;"></path> </g> <g transform="matrix(1,0,0,1,675.016,495.501)"> <path d="M0,-4.5C-0.12,-5.66 -0.381,-6.75 -0.78,-7.77C-1.181,-8.79 -1.721,-9.669 -2.4,-10.41C-3.081,-11.149 -3.891,-11.739 -4.83,-12.18C-5.771,-12.62 -6.84,-12.84 -8.04,-12.84C-10.28,-12.84 -12.13,-12.069 -13.59,-10.53C-15.051,-8.99 -15.94,-6.979 -16.26,-4.5L0,-4.5ZM-13.08,6.27C-11.44,7.65 -9.44,8.34 -7.08,8.34C-5.28,8.34 -3.72,8.021 -2.4,7.38C-1.08,6.741 0.22,5.8 1.5,4.56L5.76,8.34C4.239,10.14 2.43,11.58 0.33,12.66C-1.771,13.74 -4.28,14.28 -7.2,14.28C-9.48,14.28 -11.61,13.88 -13.59,13.08C-15.57,12.28 -17.29,11.16 -18.75,9.72C-20.211,8.28 -21.36,6.55 -22.2,4.53C-23.04,2.511 -23.46,0.261 -23.46,-2.22C-23.46,-4.5 -23.08,-6.639 -22.32,-8.64C-21.561,-10.64 -20.49,-12.39 -19.11,-13.89C-17.73,-15.39 -16.101,-16.58 -14.22,-17.46C-12.341,-18.339 -10.26,-18.78 -7.98,-18.78C-5.46,-18.78 -3.25,-18.32 -1.35,-17.4C0.55,-16.479 2.13,-15.24 3.39,-13.68C4.65,-12.12 5.6,-10.299 6.24,-8.22C6.879,-6.14 7.2,-3.96 7.2,-1.68C7.2,-1.359 7.189,-1.04 7.17,-0.72C7.149,-0.399 7.119,-0.06 7.08,0.3L-16.2,0.3C-15.761,2.901 -14.721,4.89 -13.08,6.27" style="fill:white;fill-rule:nonzero;"></path> </g> <g transform="matrix(1,0,0,1,709.096,491.001)"> <path d="M0,4.62C-0.921,4.26 -2.01,3.96 -3.27,3.72C-4.53,3.48 -5.86,3.36 -7.26,3.36C-9.54,3.36 -11.32,3.801 -12.6,4.68C-13.881,5.56 -14.52,6.82 -14.52,8.46L-14.52,8.58C-14.52,10.1 -13.931,11.26 -12.75,12.06C-11.57,12.861 -10.12,13.26 -8.399,13.26C-7.2,13.26 -6.09,13.1 -5.07,12.78C-4.05,12.46 -3.16,12.01 -2.399,11.43C-1.641,10.85 -1.05,10.15 -0.63,9.33C-0.21,8.511 0,7.6 0,6.6L0,4.62ZM-0.18,18.06L-0.18,14.16C-1.26,15.441 -2.64,16.52 -4.32,17.4C-6,18.279 -8.04,18.72 -10.439,18.72C-11.961,18.72 -13.4,18.51 -14.76,18.09C-16.12,17.67 -17.31,17.05 -18.33,16.23C-19.35,15.411 -20.17,14.391 -20.79,13.17C-21.41,11.95 -21.72,10.54 -21.72,8.94L-21.72,8.82C-21.72,7.1 -21.4,5.6 -20.76,4.32C-20.12,3.04 -19.229,1.98 -18.09,1.14C-16.95,0.3 -15.591,-0.33 -14.01,-0.75C-12.431,-1.17 -10.72,-1.38 -8.88,-1.38C-6.96,-1.38 -5.33,-1.26 -3.99,-1.02C-2.65,-0.78 -1.36,-0.46 -0.12,-0.06L-0.12,-0.84C-0.12,-3.04 -0.79,-4.719 -2.13,-5.88C-3.471,-7.04 -5.399,-7.62 -7.92,-7.62C-9.72,-7.62 -11.32,-7.44 -12.72,-7.08C-14.12,-6.72 -15.54,-6.24 -16.979,-5.64L-18.96,-11.46C-17.2,-12.26 -15.4,-12.9 -13.56,-13.38C-11.721,-13.86 -9.501,-14.1 -6.899,-14.1C-2.181,-14.1 1.32,-12.93 3.601,-10.59C5.88,-8.25 7.021,-4.96 7.021,-0.72L7.021,18.06L-0.18,18.06Z" style="fill:white;fill-rule:nonzero;"></path> </g> <g transform="matrix(1,0,0,1,733.275,479.132)"> <path d="M0,20.016C0,21.42 0.34,22.434 1.021,23.055C1.7,23.678 2.66,23.988 3.9,23.988C5.46,23.988 6.96,23.628 8.4,22.908L8.4,28.848C7.479,29.369 6.5,29.769 5.46,30.048C4.42,30.328 3.22,30.468 1.86,30.468C0.539,30.468 -0.686,30.308 -1.814,29.987C-2.944,29.666 -3.922,29.145 -4.749,28.423C-5.576,27.702 -6.211,26.75 -6.654,25.567C-7.099,24.385 -7.319,22.911 -7.319,21.146L-7.319,4.428L-11.34,4.428L-11.34,-1.752L-7.319,-1.752L-7.319,-10.452L0,-10.452L0,-1.752L8.521,-1.752L8.521,4.428L0,4.428L0,20.016Z" style="fill:white;fill-rule:nonzero;"></path> </g> <g transform="matrix(1,0,0,1,0,-25.319)"> <path d="M749.474,502.699L756.794,502.699L756.794,534.379L749.474,534.379L749.474,502.699ZM749.175,490.94L757.035,490.94L757.035,497.84L749.175,497.84L749.175,490.94Z" style="fill:white;fill-rule:nonzero;"></path> </g> <g transform="matrix(1,0,0,1,773.534,476.721)"> <path d="M0,32.34L-7.319,32.34L-7.319,0.66L0,0.66L0,5.631C0.519,4.864 1.087,4.148 1.706,3.482C2.323,2.816 3.042,2.221 3.859,1.696C4.677,1.171 5.575,0.757 6.552,0.455C7.528,0.152 8.636,0 9.872,0C13.462,0 16.234,1.101 18.188,3.3C20.143,5.5 21.12,8.46 21.12,12.18L21.12,32.34L13.801,32.34L13.801,14.382C13.801,11.908 13.216,10.002 12.045,8.665C10.875,7.328 9.22,6.66 7.078,6.66C4.977,6.66 3.272,7.349 1.964,8.725C0.654,10.103 0,12.028 0,14.501L0,32.34Z" style="fill:white;fill-rule:nonzero;"></path> </g> <g transform="matrix(1,0,0,1,826.664,507.447)"> <path d="M0,-19.392C-0.5,-20.484 -1.17,-21.408 -2.01,-22.162C-2.85,-22.917 -3.84,-23.503 -4.979,-23.92C-6.12,-24.337 -7.311,-24.546 -8.55,-24.546C-9.83,-24.546 -11.01,-24.337 -12.09,-23.92C-13.17,-23.503 -14.12,-22.917 -14.939,-22.162C-15.76,-21.408 -16.4,-20.494 -16.859,-19.421C-17.32,-18.349 -17.55,-17.157 -17.55,-15.846C-17.55,-14.535 -17.31,-13.343 -16.83,-12.27C-16.35,-11.198 -15.71,-10.274 -14.91,-9.499C-14.11,-8.725 -13.16,-8.129 -12.06,-7.711C-10.96,-7.294 -9.79,-7.086 -8.55,-7.086C-7.311,-7.086 -6.12,-7.294 -4.979,-7.711C-3.84,-8.129 -2.85,-8.725 -2.01,-9.499C-1.17,-10.274 -0.5,-11.188 0,-12.241C0.5,-13.293 0.75,-14.475 0.75,-15.786C0.75,-17.097 0.5,-18.299 0,-19.392M3.45,7.434C0.489,10.034 -3.71,11.334 -9.149,11.334C-14.43,11.334 -19.15,10.074 -23.31,7.554L-20.609,2.094C-18.93,3.133 -17.17,3.954 -15.33,4.554C-13.49,5.154 -11.49,5.454 -9.33,5.454C-6.09,5.454 -3.61,4.63 -1.89,2.983C-0.171,1.335 0.69,-1.097 0.69,-4.312L0.69,-6.783C-0.63,-5.046 -2.17,-3.632 -3.93,-2.542C-5.69,-1.451 -7.87,-0.906 -10.47,-0.906C-12.351,-0.906 -14.15,-1.236 -15.87,-1.896C-17.59,-2.556 -19.12,-3.525 -20.46,-4.806C-21.801,-6.086 -22.87,-7.646 -23.67,-9.486C-24.471,-11.326 -24.87,-13.426 -24.87,-15.786C-24.87,-18.146 -24.471,-20.246 -23.67,-22.086C-22.87,-23.926 -21.801,-25.486 -20.46,-26.766C-19.12,-28.046 -17.58,-29.025 -15.84,-29.706C-14.1,-30.386 -12.311,-30.726 -10.47,-30.726C-7.79,-30.726 -5.58,-30.191 -3.84,-29.12C-2.1,-28.05 -0.61,-26.768 0.63,-25.274L0.63,-30.066L7.891,-30.066L7.891,-4.866C7.891,0.734 6.41,4.833 3.45,7.434" style="fill:white;fill-rule:nonzero;"></path> </g> <g transform="matrix(1,0,0,1,506.088,543.071)"> <path d="M0,25.98C1.531,25 2.298,23.55 2.298,21.63C2.298,19.83 1.541,18.43 0.031,17.43C-1.479,16.43 -3.788,15.93 -6.894,15.93L-19.339,15.93L-19.339,27.45L-6.319,27.45C-3.639,27.45 -1.532,26.96 0,25.98M-2.496,8.332C-0.965,7.387 -0.199,5.929 -0.199,3.959C-0.199,2.23 -0.869,0.892 -2.21,-0.053C-3.55,-0.998 -5.495,-1.47 -8.047,-1.47L-19.339,-1.47L-19.339,9.75L-8.621,9.75C-6.069,9.75 -4.028,9.277 -2.496,8.332M3.648,-5.124C6.289,-3.201 7.61,-0.577 7.61,2.75C7.61,4.032 7.431,5.174 7.07,6.175C6.71,7.177 6.245,8.049 5.674,8.791C5.102,9.532 4.425,10.184 3.642,10.745C2.858,11.305 2.065,11.786 1.262,12.187C2.575,12.626 3.773,13.135 4.856,13.714C5.938,14.294 6.871,14.982 7.656,15.781C8.44,16.58 9.046,17.527 9.47,18.626C9.895,19.725 10.107,20.992 10.107,22.429C10.107,24.306 9.713,25.964 8.925,27.401C8.137,28.839 7.019,30.046 5.57,31.025C4.122,32.004 2.374,32.743 0.33,33.242C-1.716,33.74 -3.974,33.99 -6.444,33.99L-27.148,33.99L-27.148,-8.01L-7.086,-8.01C-2.57,-8.01 1.008,-7.048 3.648,-5.124" style="fill:white;fill-rule:nonzero;"></path> </g> <g transform="matrix(1,0,0,1,547.432,563.501)"> <path d="M0,-4.5C-0.128,-5.66 -0.406,-6.75 -0.832,-7.77C-1.259,-8.79 -1.835,-9.669 -2.561,-10.41C-3.287,-11.149 -4.15,-11.739 -5.153,-12.18C-6.156,-12.62 -7.298,-12.84 -8.578,-12.84C-10.969,-12.84 -12.941,-12.069 -14.499,-10.53C-16.058,-8.99 -17.007,-6.979 -17.348,-4.5L0,-4.5ZM-13.955,6.27C-12.205,7.65 -10.072,8.34 -7.554,8.34C-5.633,8.34 -3.969,8.021 -2.561,7.38C-1.152,6.741 0.234,5.8 1.601,4.56L6.146,8.34C4.523,10.14 2.593,11.58 0.353,12.66C-1.889,13.74 -4.567,14.28 -7.682,14.28C-10.114,14.28 -12.387,13.88 -14.499,13.08C-16.611,12.28 -18.447,11.16 -20.004,9.72C-21.562,8.28 -22.789,6.55 -23.685,4.53C-24.581,2.511 -25.029,0.261 -25.029,-2.22C-25.029,-4.5 -24.624,-6.639 -23.812,-8.64C-23.003,-10.64 -21.86,-12.39 -20.389,-13.89C-18.916,-15.39 -17.178,-16.58 -15.171,-17.46C-13.166,-18.339 -10.946,-18.78 -8.514,-18.78C-5.825,-18.78 -3.468,-18.32 -1.44,-17.4C0.586,-16.479 2.272,-15.24 3.617,-13.68C4.961,-12.12 5.975,-10.299 6.657,-8.22C7.34,-6.14 7.682,-3.96 7.682,-1.68C7.682,-1.359 7.671,-1.04 7.649,-0.72C7.628,-0.399 7.596,-0.06 7.554,0.3L-17.283,0.3C-16.814,2.901 -15.705,4.89 -13.955,6.27" style="fill:white;fill-rule:nonzero;"></path> </g> <g transform="matrix(1,0,0,1,572.333,547.132)"> <path d="M0,20.016C0,21.42 0.362,22.434 1.089,23.055C1.813,23.678 2.838,23.988 4.161,23.988C5.825,23.988 7.426,23.628 8.962,22.908L8.962,28.848C7.98,29.369 6.935,29.769 5.825,30.048C4.715,30.328 3.435,30.468 1.984,30.468C0.575,30.468 -0.731,30.308 -1.937,29.987C-3.142,29.666 -4.185,29.145 -5.066,28.423C-5.949,27.702 -6.626,26.75 -7.1,25.567C-7.573,24.385 -7.81,22.911 -7.81,21.146L-7.81,4.428L-12.099,4.428L-12.099,-1.752L-7.81,-1.752L-7.81,-10.452L0,-10.452L0,-1.752L9.09,-1.752L9.09,4.428L0,4.428L0,20.016Z" style="fill:white;fill-rule:nonzero;"></path> </g> <g transform="matrix(1,0,0,1,598.578,547.132)"> <path d="M0,20.016C0,21.42 0.362,22.434 1.088,23.055C1.813,23.678 2.838,23.988 4.161,23.988C5.825,23.988 7.426,23.628 8.962,22.908L8.962,28.848C7.979,29.369 6.935,29.769 5.825,30.048C4.715,30.328 3.435,30.468 1.984,30.468C0.575,30.468 -0.732,30.308 -1.937,29.987C-3.142,29.666 -4.185,29.145 -5.067,28.423C-5.949,27.702 -6.627,26.75 -7.1,25.567C-7.574,24.385 -7.81,22.911 -7.81,21.146L-7.81,4.428L-12.099,4.428L-12.099,-1.752L-7.81,-1.752L-7.81,-10.452L0,-10.452L0,-1.752L9.09,-1.752L9.09,4.428L0,4.428L0,20.016Z" style="fill:white;fill-rule:nonzero;"></path> </g> <g transform="matrix(1,0,0,1,637.626,563.501)"> <path d="M0,-4.5C-0.129,-5.66 -0.406,-6.75 -0.833,-7.77C-1.26,-8.79 -1.836,-9.669 -2.561,-10.41C-3.287,-11.149 -4.151,-11.739 -5.153,-12.18C-6.157,-12.62 -7.298,-12.84 -8.578,-12.84C-10.969,-12.84 -12.942,-12.069 -14.499,-10.53C-16.058,-8.99 -17.007,-6.979 -17.348,-4.5L0,-4.5ZM-13.955,6.27C-12.206,7.65 -10.072,8.34 -7.554,8.34C-5.634,8.34 -3.97,8.021 -2.561,7.38C-1.152,6.741 0.233,5.8 1.6,4.56L6.145,8.34C4.522,10.14 2.592,11.58 0.352,12.66C-1.889,13.74 -4.567,14.28 -7.682,14.28C-10.114,14.28 -12.387,13.88 -14.499,13.08C-16.612,12.28 -18.447,11.16 -20.005,9.72C-21.562,8.28 -22.789,6.55 -23.686,4.53C-24.582,2.511 -25.029,0.261 -25.029,-2.22C-25.029,-4.5 -24.625,-6.639 -23.813,-8.64C-23.003,-10.64 -21.861,-12.39 -20.389,-13.89C-18.916,-15.39 -17.178,-16.58 -15.172,-17.46C-13.166,-18.339 -10.946,-18.78 -8.515,-18.78C-5.825,-18.78 -3.468,-18.32 -1.44,-17.4C0.586,-16.479 2.272,-15.24 3.616,-13.68C4.961,-12.12 5.974,-10.299 6.657,-8.22C7.339,-6.14 7.681,-3.96 7.681,-1.68C7.681,-1.359 7.67,-1.04 7.649,-0.72C7.627,-0.399 7.595,-0.06 7.553,0.3L-17.284,0.3C-16.815,2.901 -15.706,4.89 -13.955,6.27" style="fill:white;fill-rule:nonzero;"></path> </g> <g transform="matrix(1,0,0,1,660.926,544.661)"> <path d="M0,32.4L-7.81,32.4L-7.81,0.72L0,0.72L0,7.86C1.066,5.46 2.582,3.54 4.545,2.1C6.508,0.66 8.983,0 11.971,0.12L11.971,7.8L11.522,7.8C9.815,7.8 8.258,8.061 6.85,8.58C5.441,9.1 4.225,9.88 3.201,10.92C2.177,11.961 1.387,13.27 0.832,14.85C0.277,16.431 0,18.261 0,20.34L0,32.4Z" style="fill:white;fill-rule:nonzero;"></path> </g> <g transform="matrix(1,0,0,1,726.801,543.071)"> <path d="M0,25.98C1.532,25 2.298,23.55 2.298,21.63C2.298,19.83 1.542,18.43 0.031,17.43C-1.479,16.43 -3.787,15.93 -6.893,15.93L-19.339,15.93L-19.339,27.45L-6.319,27.45C-3.639,27.45 -1.532,26.96 0,25.98M-2.496,8.332C-0.965,7.387 -0.198,5.929 -0.198,3.959C-0.198,2.23 -0.869,0.892 -2.209,-0.053C-3.549,-0.998 -5.495,-1.47 -8.046,-1.47L-19.339,-1.47L-19.339,9.75L-8.62,9.75C-6.068,9.75 -4.027,9.277 -2.496,8.332M3.649,-5.124C6.29,-3.201 7.611,-0.577 7.611,2.75C7.611,4.032 7.431,5.174 7.071,6.175C6.711,7.177 6.246,8.049 5.675,8.791C5.103,9.532 4.426,10.184 3.643,10.745C2.859,11.305 2.065,11.786 1.262,12.187C2.576,12.626 3.774,13.135 4.856,13.714C5.938,14.294 6.872,14.982 7.657,15.781C8.441,16.58 9.046,17.527 9.471,18.626C9.895,19.725 10.107,20.992 10.107,22.429C10.107,24.306 9.714,25.964 8.926,27.401C8.137,28.839 7.019,30.046 5.57,31.025C4.122,32.004 2.375,32.743 0.33,33.242C-1.715,33.74 -3.974,33.99 -6.444,33.99L-27.148,33.99L-27.148,-8.01L-7.085,-8.01C-2.57,-8.01 1.009,-7.048 3.649,-5.124" style="fill:white;fill-rule:nonzero;"></path> </g> <g transform="matrix(1,0,0,1,0,110.322)"> <rect x="745.421" y="422.939" width="7.81" height="43.8" style="fill:white;"></rect> </g> <g transform="matrix(1,0,0,1,785.43,577.72)"> <path d="M0,-32.34L7.81,-32.34L7.81,-0.66L0,-0.66L0,-5.631C-1.106,-4.097 -2.49,-2.775 -4.149,-1.665C-5.81,-0.555 -7.937,0 -10.532,0C-14.363,0 -17.321,-1.099 -19.405,-3.3C-21.491,-5.499 -22.533,-8.46 -22.533,-12.18L-22.533,-32.34L-14.724,-32.34L-14.724,-14.382C-14.724,-11.907 -14.101,-10.002 -12.852,-8.665C-11.604,-7.328 -9.837,-6.66 -7.552,-6.66C-5.311,-6.66 -3.491,-7.348 -2.095,-8.725C-0.698,-10.101 0,-12.027 0,-14.501L0,-32.34Z" style="fill:white;fill-rule:nonzero;"></path> </g> <g transform="matrix(1,0,0,1,826.141,563.501)"> <path d="M0,-4.5C-0.128,-5.66 -0.406,-6.75 -0.832,-7.77C-1.259,-8.79 -1.835,-9.669 -2.561,-10.41C-3.287,-11.149 -4.15,-11.739 -5.153,-12.18C-6.156,-12.62 -7.298,-12.84 -8.578,-12.84C-10.969,-12.84 -12.941,-12.069 -14.499,-10.53C-16.058,-8.99 -17.007,-6.979 -17.348,-4.5L0,-4.5ZM-13.955,6.27C-12.205,7.65 -10.072,8.34 -7.554,8.34C-5.633,8.34 -3.969,8.021 -2.561,7.38C-1.152,6.741 0.234,5.8 1.601,4.56L6.146,8.34C4.523,10.14 2.593,11.58 0.353,12.66C-1.889,13.74 -4.567,14.28 -7.682,14.28C-10.114,14.28 -12.387,13.88 -14.499,13.08C-16.611,12.28 -18.447,11.16 -20.004,9.72C-21.562,8.28 -22.789,6.55 -23.685,4.53C-24.581,2.511 -25.029,0.261 -25.029,-2.22C-25.029,-4.5 -24.624,-6.639 -23.812,-8.64C-23.003,-10.64 -21.86,-12.39 -20.389,-13.89C-18.916,-15.39 -17.178,-16.58 -15.171,-17.46C-13.166,-18.339 -10.946,-18.78 -8.514,-18.78C-5.825,-18.78 -3.468,-18.32 -1.44,-17.4C0.586,-16.479 2.272,-15.24 3.617,-13.68C4.961,-12.12 5.975,-10.299 6.657,-8.22C7.34,-6.14 7.682,-3.96 7.682,-1.68C7.682,-1.359 7.671,-1.04 7.649,-0.72C7.628,-0.399 7.596,-0.06 7.554,0.3L-17.283,0.3C-16.814,2.901 -15.705,4.89 -13.955,6.27" style="fill:white;fill-rule:nonzero;"></path> </g> <g transform="matrix(1,0,0,1,516.799,402.023)"> <path d="M0,42.883L0,5.635L-16.97,30.324L-17.215,30.324L-34.185,5.635L-34.185,42.883L-37.248,42.883L-37.248,0L-34.246,0L-17.031,25.362L0.184,0L3.186,0L3.186,42.883L0,42.883Z" style="fill:white;fill-rule:nonzero;"></path> </g> <g transform="matrix(1,0,0,1,0,-153.684)"> <path d="M532.481,567.346L535.483,567.346L535.483,598.59L532.481,598.59L532.481,567.346ZM532.114,555.094L535.851,555.094L535.851,559.198L532.114,559.198L532.114,555.094Z" style="fill:white;fill-rule:nonzero;"></path> </g> <g transform="matrix(1,0,0,1,567.37,418.398)"> <path d="M0,21.771C-0.552,22.892 -1.317,23.85 -2.297,24.645C-3.277,25.439 -4.422,26.051 -5.728,26.479C-7.035,26.906 -8.444,27.12 -9.955,27.12C-12.243,27.12 -14.529,26.692 -16.816,25.837C-19.104,24.981 -21.085,23.878 -22.759,22.525L-20.982,20.136C-19.267,21.444 -17.471,22.455 -15.591,23.168C-13.713,23.884 -11.772,24.241 -9.771,24.241C-7.648,24.241 -5.861,23.711 -4.411,22.652C-2.962,21.592 -2.236,20.145 -2.236,18.311L-2.236,18.188C-2.236,17.292 -2.461,16.518 -2.91,15.865C-3.359,15.213 -3.973,14.643 -4.748,14.153C-5.524,13.664 -6.402,13.256 -7.382,12.931C-8.362,12.605 -9.403,12.279 -10.507,11.953C-11.772,11.586 -13.049,11.198 -14.335,10.791C-15.622,10.383 -16.776,9.864 -17.797,9.232C-18.818,8.601 -19.646,7.816 -20.277,6.878C-20.911,5.941 -21.228,4.779 -21.228,3.393L-21.228,3.271C-21.228,2.007 -20.973,0.856 -20.462,-0.183C-19.951,-1.223 -19.247,-2.129 -18.348,-2.903C-17.45,-3.678 -16.367,-4.279 -15.102,-4.707C-13.836,-5.135 -12.446,-5.349 -10.936,-5.349C-9.058,-5.349 -7.128,-5.036 -5.146,-4.41C-3.165,-3.784 -1.399,-2.933 0.153,-1.857L-1.439,0.655C-2.87,-0.284 -4.411,-1.04 -6.065,-1.612C-7.719,-2.184 -9.384,-2.47 -11.058,-2.47C-13.223,-2.47 -14.948,-1.95 -16.234,-0.91C-17.521,0.129 -18.164,1.422 -18.164,2.971L-18.164,3.094C-18.164,3.949 -17.919,4.693 -17.429,5.325C-16.939,5.957 -16.296,6.498 -15.499,6.945C-14.703,7.394 -13.774,7.791 -12.712,8.137C-11.65,8.484 -10.567,8.821 -9.465,9.146C-8.199,9.514 -6.953,9.911 -5.728,10.339C-4.503,10.767 -3.4,11.317 -2.42,11.989C-1.439,12.662 -0.653,13.467 -0.062,14.404C0.53,15.341 0.827,16.502 0.827,17.889L0.827,18.011C0.827,19.397 0.552,20.65 0,21.771" style="fill:white;fill-rule:nonzero;"></path> </g> <g transform="matrix(1,0,0,1,590.221,403.952)"> <path d="M0,41.23C-0.797,41.414 -1.686,41.505 -2.665,41.505C-3.891,41.505 -5.034,41.342 -6.096,41.015C-7.158,40.689 -8.087,40.168 -8.884,39.453C-9.68,38.739 -10.303,37.84 -10.752,36.758C-11.202,35.676 -11.426,34.399 -11.426,32.929L-11.426,12.467L-15.959,12.467L-15.959,9.71L-11.426,9.71L-11.426,-0.275L-8.424,-0.275L-8.424,9.71L2.542,9.71L2.542,12.467L-8.424,12.467L-8.424,32.576C-8.424,34.817 -7.842,36.386 -6.678,37.282C-5.514,38.178 -4.013,38.626 -2.175,38.626C-1.4,38.626 -0.665,38.549 0.03,38.395C0.725,38.24 1.521,37.97 2.419,37.584L2.419,40.403C1.602,40.771 0.796,41.046 0,41.23" style="fill:white;fill-rule:nonzero;"></path> </g> <g transform="matrix(1,0,0,1,618.186,441.558)"> <path d="M0,-25.078C-1.798,-25.078 -3.513,-24.741 -5.146,-24.067C-6.78,-23.393 -8.22,-22.392 -9.465,-21.065C-10.711,-19.738 -11.701,-18.103 -12.437,-16.164C-13.172,-14.224 -13.539,-11.988 -13.539,-9.456L-13.539,3.348L-16.541,3.348L-16.541,-27.896L-13.539,-27.896L-13.539,-19.013C-12.927,-20.401 -12.151,-21.687 -11.211,-22.872C-10.272,-24.057 -9.211,-25.067 -8.025,-25.905C-6.842,-26.742 -5.544,-27.375 -4.136,-27.804C-2.727,-28.233 -1.246,-28.426 0.307,-28.386L0.307,-25.078L0,-25.078Z" style="fill:white;fill-rule:nonzero;"></path> </g> <g transform="matrix(1,0,0,1,646.122,429.168)"> <path d="M0,0.478C-1.308,0.153 -2.839,-0.162 -4.595,-0.467C-6.351,-0.772 -8.353,-0.925 -10.598,-0.925C-13.906,-0.925 -16.448,-0.264 -18.226,1.058C-20.002,2.38 -20.891,4.139 -20.891,6.334L-20.891,6.456C-20.891,7.595 -20.646,8.602 -20.155,9.476C-19.665,10.351 -19.002,11.093 -18.164,11.703C-17.327,12.313 -16.356,12.78 -15.254,13.106C-14.151,13.431 -13.009,13.594 -11.823,13.594C-10.23,13.594 -8.72,13.36 -7.29,12.893C-5.861,12.425 -4.604,11.774 -3.522,10.941C-2.44,10.107 -1.583,9.1 -0.949,7.92C-0.316,6.741 0,5.44 0,4.016L0,0.478ZM-0.062,15.738L-0.062,10.531C-0.593,11.266 -1.235,11.992 -1.991,12.706C-2.747,13.421 -3.614,14.054 -4.595,14.605C-5.574,15.156 -6.687,15.606 -7.934,15.953C-9.18,16.299 -10.537,16.474 -12.007,16.474C-13.478,16.474 -14.928,16.269 -16.356,15.861C-17.787,15.453 -19.073,14.84 -20.216,14.023C-21.36,13.207 -22.29,12.185 -23.004,10.96C-23.719,9.734 -24.076,8.306 -24.076,6.671L-24.076,6.549C-24.076,4.916 -23.739,3.466 -23.065,2.199C-22.391,0.934 -21.463,-0.128 -20.277,-0.986C-19.094,-1.844 -17.664,-2.497 -15.989,-2.947C-14.315,-3.396 -12.457,-3.621 -10.414,-3.621C-8.209,-3.621 -6.31,-3.498 -4.717,-3.253C-3.124,-3.008 -1.572,-2.681 -0.062,-2.273L-0.062,-3.613C-0.062,-6.78 -0.971,-9.156 -2.787,-10.74C-4.604,-12.324 -7.127,-13.116 -10.354,-13.116C-12.273,-13.116 -14.029,-12.881 -15.622,-12.412C-17.215,-11.942 -18.726,-11.34 -20.155,-10.605L-21.258,-13.242C-19.542,-14.076 -17.807,-14.744 -16.051,-15.244C-14.295,-15.745 -12.335,-15.996 -10.169,-15.996C-6.126,-15.996 -2.94,-14.974 -0.612,-12.933C1.716,-10.89 2.88,-7.827 2.88,-3.743L2.88,15.738L-0.062,15.738Z" style="fill:white;fill-rule:nonzero;"></path> </g> <g transform="matrix(1,0,0,1,711.763,405.729)"> <path d="M0,35.47C-1.205,36.389 -2.492,37.176 -3.859,37.829C-5.229,38.483 -6.708,38.993 -8.301,39.36C-9.894,39.728 -11.63,39.912 -13.509,39.912C-16.571,39.912 -19.411,39.339 -22.023,38.197C-24.638,37.053 -26.895,35.491 -28.793,33.51C-30.692,31.529 -32.173,29.191 -33.234,26.495C-34.298,23.8 -34.828,20.92 -34.828,17.857L-34.828,17.735C-34.828,14.713 -34.287,11.854 -33.204,9.158C-32.122,6.463 -30.631,4.104 -28.732,2.082C-26.833,0.061 -24.577,-1.532 -21.963,-2.696C-19.35,-3.86 -16.49,-4.442 -13.386,-4.442C-11.467,-4.442 -9.731,-4.279 -8.179,-3.952C-6.627,-3.625 -5.187,-3.155 -3.859,-2.543C-2.533,-1.93 -1.286,-1.205 -0.123,-0.368C1.041,0.47 2.175,1.399 3.277,2.419L1.011,4.747C0.07,3.849 -0.909,3.012 -1.93,2.236C-2.951,1.46 -4.043,0.796 -5.207,0.244C-6.371,-0.307 -7.638,-0.745 -9.006,-1.072C-10.374,-1.399 -11.854,-1.563 -13.447,-1.563C-16.021,-1.563 -18.409,-1.072 -20.615,-0.093C-22.82,0.887 -24.729,2.246 -26.343,3.981C-27.957,5.718 -29.223,7.749 -30.141,10.077C-31.06,12.405 -31.52,14.917 -31.52,17.612L-31.52,17.735C-31.52,20.43 -31.051,22.952 -30.11,25.301C-29.172,27.65 -27.896,29.691 -26.281,31.427C-24.669,33.163 -22.759,34.531 -20.554,35.532C-18.348,36.532 -15.959,37.032 -13.386,37.032C-10.282,37.032 -7.587,36.461 -5.299,35.317C-3.013,34.174 -0.787,32.52 1.378,30.355L3.522,32.438C2.379,33.54 1.204,34.551 0,35.47" style="fill:white;fill-rule:nonzero;"></path> </g> <g transform="matrix(1,0,0,1,729.436,439.973)"> <path d="M0,-33.632C-1.921,-32.263 -3.778,-30.293 -5.575,-27.72L-7.965,-29.313C-7.025,-30.742 -6.056,-32.018 -5.055,-33.142C-4.054,-34.265 -2.951,-35.23 -1.746,-36.038C-0.542,-36.845 0.796,-37.467 2.267,-37.906C3.736,-38.344 5.411,-38.564 7.29,-38.564C9.128,-38.564 10.822,-38.267 12.375,-37.675C13.926,-37.083 15.264,-36.256 16.388,-35.194C17.51,-34.132 18.398,-32.876 19.052,-31.426C19.705,-29.976 20.032,-28.414 20.032,-26.74C20.032,-25.27 19.827,-23.891 19.42,-22.605C19.011,-21.319 18.368,-20.032 17.49,-18.745C16.611,-17.459 15.499,-16.111 14.151,-14.702C12.804,-13.293 11.189,-11.731 9.312,-10.015L-3.799,1.869L20.461,1.869L20.461,4.932L-8.822,4.932L-8.822,2.547L7.167,-11.889C8.923,-13.48 10.414,-14.927 11.64,-16.233C12.864,-17.537 13.845,-18.761 14.58,-19.903C15.315,-21.044 15.846,-22.145 16.173,-23.205C16.499,-24.266 16.663,-25.366 16.663,-26.508C16.663,-27.895 16.396,-29.159 15.866,-30.301C15.335,-31.443 14.631,-32.412 13.753,-33.207C12.874,-34.002 11.844,-34.613 10.659,-35.042C9.475,-35.47 8.249,-35.684 6.983,-35.684C4.247,-35.684 1.919,-35 0,-33.632" style="fill:white;fill-rule:nonzero;"></path> </g> <g transform="matrix(1,0,0,1,790.943,413.817)"> <path d="M0,19.295C0,16.631 -1.113,14.571 -3.339,13.116C-5.565,11.661 -8.802,10.934 -13.049,10.934L-27.568,10.934L-27.568,28.21L-12.008,28.21C-8.332,28.21 -5.412,27.421 -3.247,25.842C-1.083,24.265 0,22.123 0,19.418L0,19.295ZM-2.39,-0.955C-2.39,-3.34 -3.309,-5.264 -5.146,-6.724C-6.984,-8.185 -9.64,-8.915 -13.11,-8.915L-27.568,-8.915L-27.568,8.054L-13.417,8.054C-11.823,8.054 -10.354,7.859 -9.006,7.468C-7.658,7.078 -6.494,6.512 -5.514,5.772C-4.533,5.03 -3.768,4.105 -3.217,2.995C-2.665,1.884 -2.39,0.608 -2.39,-0.831L-2.39,-0.955ZM2.085,24.271C1.351,25.718 0.311,26.941 -1.034,27.94C-2.38,28.939 -3.99,29.713 -5.865,30.264C-7.741,30.814 -9.841,31.089 -12.163,31.089L-30.754,31.089L-30.754,-11.794L-13.083,-11.794C-11.004,-11.794 -9.109,-11.549 -7.397,-11.058C-5.686,-10.566 -4.229,-9.861 -3.026,-8.94C-1.823,-8.019 -0.886,-6.905 -0.213,-5.596C0.459,-4.286 0.796,-2.833 0.796,-1.237L0.796,-1.115C0.796,0.358 0.582,1.648 0.154,2.753C-0.273,3.857 -0.834,4.819 -1.527,5.637C-2.22,6.456 -3.004,7.141 -3.88,7.693C-4.756,8.246 -5.621,8.706 -6.477,9.074C-5.213,9.4 -3.991,9.838 -2.808,10.389C-1.625,10.94 -0.597,11.632 0.28,12.468C1.157,13.304 1.859,14.282 2.39,15.403C2.92,16.525 3.186,17.819 3.186,19.286L3.186,19.409C3.186,21.203 2.818,22.823 2.085,24.271" style="fill:white;fill-rule:nonzero;"></path> </g> <g transform="matrix(1,0,0,1,809.811,439.973)"> <path d="M0,-33.632C-1.921,-32.263 -3.778,-30.293 -5.575,-27.72L-7.965,-29.313C-7.025,-30.742 -6.056,-32.018 -5.055,-33.142C-4.054,-34.265 -2.951,-35.23 -1.746,-36.038C-0.542,-36.845 0.796,-37.467 2.267,-37.906C3.736,-38.344 5.411,-38.564 7.29,-38.564C9.128,-38.564 10.822,-38.267 12.375,-37.675C13.926,-37.083 15.264,-36.256 16.388,-35.194C17.51,-34.132 18.398,-32.876 19.052,-31.426C19.705,-29.976 20.032,-28.414 20.032,-26.74C20.032,-25.27 19.827,-23.891 19.42,-22.605C19.011,-21.319 18.368,-20.032 17.49,-18.745C16.611,-17.459 15.499,-16.111 14.151,-14.702C12.804,-13.293 11.189,-11.731 9.312,-10.015L-3.799,1.869L20.461,1.869L20.461,4.932L-8.822,4.932L-8.822,2.547L7.167,-11.889C8.923,-13.48 10.414,-14.927 11.64,-16.233C12.864,-17.537 13.845,-18.761 14.58,-19.903C15.315,-21.044 15.846,-22.145 16.173,-23.205C16.499,-24.266 16.663,-25.366 16.663,-26.508C16.663,-27.895 16.396,-29.159 15.866,-30.301C15.335,-31.443 14.631,-32.412 13.753,-33.207C12.874,-34.002 11.844,-34.613 10.659,-35.042C9.475,-35.47 8.249,-35.684 6.983,-35.684C4.247,-35.684 1.919,-35 0,-33.632" style="fill:white;fill-rule:nonzero;"></path> </g> <g transform="matrix(1,0,0,1,405.161,635.115)"> <path d="M0,-70.951C-21.226,-45.002 -53.494,-28.439 -89.633,-28.439C-128.556,-28.439 -162.985,-47.654 -183.968,-77.112L-199.263,-65.178C-188.425,-50.119 -174.302,-37.057 -157.192,-27.178C-99.448,6.161 -27.328,-7.975 13.99,-57.466L0,-70.951Z" style="fill:white;fill-rule:nonzero;"></path> </g> <g transform="matrix(1,0,0,1,335.698,531.783)"> <path d="M0,-153.469C32.942,-147.248 62.927,-126.839 80.22,-95.106C98.845,-60.93 98.447,-21.503 82.621,11.017L100.419,18.737C108.456,2.014 113.168,-16.637 113.655,-36.388C115.297,-103.045 68.375,-159.608 5.146,-172.206L0,-153.469Z" style="fill:white;fill-rule:nonzero;"></path> </g> <g transform="matrix(1,0,0,1,209.739,364.179)"> <path d="M0,171.462C-12.44,140.332 -11.324,104.077 6.161,72.45C24.992,38.386 58.466,17.551 94.398,13.44L91.354,-5.72C72.931,-3.52 54.667,2.519 37.743,12.715C-19.371,47.121 -41.893,117.076 -18.57,177.182L0,171.462Z" style="fill:white;fill-rule:nonzero;"></path> </g> <g transform="matrix(1,0,0,1,277.936,470.841)"> <path d="M0,-37.551C17.438,-47.389 59.626,-45.812 69.143,-15.214C71.719,-6.931 71.181,2.141 68.174,10.467C89.705,7.248 96.403,-6.024 94.748,-19.628C89.602,-61.924 36.573,-74.608 9.41,-67.149C-20.76,-58.865 -59.921,-24.317 -53.415,37.057C-39.528,-17.685 -9.077,-32.43 0,-37.551" style="fill:white;fill-rule:nonzero;"></path> </g> <g transform="matrix(1,0,0,1,280.863,545.934)"> <path d="M0,-59.792C13.985,-67.76 31.017,-65.46 42.381,-55.281C50.043,-87.228 10.743,-97.662 -11.933,-78.549C-41.54,-53.593 -44.529,-19.929 -29.492,6.464C-18.238,26.216 2.201,37.452 23.391,37.87C9.295,33.212 -3.192,23.523 -11.12,9.609C-21.981,-9.453 -25.768,-45.11 0,-59.792" style="fill:white;fill-rule:nonzero;"></path> </g> <g transform="matrix(1,0,0,1,356.654,517.134)"> <path d="M0,46.327C-17.298,51.155 -46.365,47.062 -52.892,23.677C-56.434,10.986 -51.216,-2.079 -40.87,-9.076C-64.712,-21.522 -77.125,1.467 -73.831,18.122C-66.33,56.048 -33.245,67.849 -6.155,60.288C11.769,55.285 24.762,41.294 29.313,24.552C22.807,34.817 12.627,42.803 0,46.327" style="fill:white;fill-rule:nonzero;"></path> </g> </g> </g> </g> </svg>
